<svg width="64" height="64" viewBox="0 0 64 64" fill="none" xmlns="http://www.w3.org/2000/svg">
<g clip-path="url(#clip0_1995_61718)">
<path d="M10.667 42.6663V58.6663H53.3337V42.6663C53.3337 39.733 50.9337 37.333 48.0003 37.333H16.0003C13.067 37.333 10.667 39.733 10.667 42.6663ZM48.0003 47.9997H16.0003V42.6663H48.0003V47.9997ZM32.0003 5.33301C24.6403 5.33301 18.667 11.3063 18.667 18.6663L32.0003 37.333L45.3337 18.6663C45.3337 11.3063 39.3603 5.33301 32.0003 5.33301ZM32.0003 29.333L24.0003 18.6663C24.0003 14.2397 27.5737 10.6663 32.0003 10.6663C36.427 10.6663 40.0003 14.2397 40.0003 18.6663L32.0003 29.333Z" fill="#131C38"/>
</g>
<defs>
<clipPath id="clip0_1995_61718">
<rect width="64" height="64" fill="white"/>
</clipPath>
</defs>
</svg>
